# xmcd CD database file
#
# Track frame offsets:
#	150
#	11495
#	25197
#	47417
#	64995
#	75637
#	89320
#	102662
#	120970
#	136297
#
# Disc length: 1991 seconds
#
# Revision: 2
# Processed by: cddbd v1.4PL0 Copyright (c) Steve Scherf et al.
# Submitted via: CDex 1.50
#
DISCID=7607c50a
DTITLE=Tanya Tucker - The Best Of Tanya Tucker
DYEAR=1982
DGENRE=Country
TTITLE0=Pecos Promenade
TTITLE1=Dream Lover
TTITLE2=Texas (When I Die)
TTITLE3=Love Knows We Tried
TTITLE4=Somebody Buy This Cowgirl A Beer
TTITLE5=Should I Do It
TTITLE6=Can I See You Tonight
TTITLE7=I'm The Singer, You're The Song
TTITLE8=Rodeo Girls
TTITLE9=Save Me
EXTD=YEAR: 1982
EXTT0=
EXTT1=
EXTT2=
EXTT3=
EXTT4=
EXTT5=
EXTT6=
EXTT7=
EXTT8=
EXTT9=
PLAYORDER=
